<?xml version="1.0" standalone="no"?>
<!DOCTYPE svg PUBLIC "-//W3C//DTD SVG 20010904//EN"
 "http://www.w3.org/TR/2001/REC-SVG-20010904/DTD/svg10.dtd">
<svg version="1.0" xmlns="http://www.w3.org/2000/svg"
 width="512.000000pt" height="512.000000pt" viewBox="0 0 512.000000 512.000000"
 preserveAspectRatio="xMidYMid meet">

<g transform="translate(0.000000,512.000000) scale(0.100000,-0.100000)"
fill="#ffffff" stroke="none">
<path d="M2524 4890 c-12 -5 -33 -24 -47 -42 -57 -77 -597 -1027 -597 -1051 0
-59 46 -107 103 -107 15 0 112 60 248 153 l224 153 5 -1856 c3 -1021 9 -1863
14 -1873 10 -21 57 -47 86 -47 29 0 76 26 86 47 5 10 11 852 14 1874 l5 1855
224 -153 c137 -94 233 -153 248 -153 57 0 103 48 103 106 0 28 -567 1020 -610
1067 -27 30 -73 42 -106 27z"/>
</g>
</svg>
